<?xml version="1.0" encoding="UTF-8"?>
<svg width="752pt" height="752pt" version="1.1" viewBox="0 0 752 752" xmlns="http://www.w3.org/2000/svg">
 <path d="m508.61 196.04h-265.21c-26.047 0-47.359 21.312-47.359 47.359v265.21c0 26.047 21.312 47.359 47.359 47.359h265.21c26.047 0 47.359-21.312 47.359-47.359l-0.003906-265.21c0-26.047-21.309-47.359-47.355-47.359zm-208.38 284.15c-15.629 0-28.414-12.785-28.414-28.414 0-15.629 12.785-28.414 28.414-28.414 15.629 0 28.414 12.785 28.414 28.414 0.003906 15.629-12.785 28.414-28.414 28.414zm0-75.77c-15.629 0-28.414-12.785-28.414-28.414s12.785-28.414 28.414-28.414c15.629 0 28.414 12.785 28.414 28.414 0.003906 15.625-12.785 28.414-28.414 28.414zm0-75.773c-15.629 0-28.414-12.785-28.414-28.414 0-15.629 12.785-28.414 28.414-28.414 15.629 0 28.414 12.785 28.414 28.414 0.003906 15.625-12.785 28.414-28.414 28.414zm151.55 151.54c-15.629 0-28.414-12.785-28.414-28.414 0-15.629 12.785-28.414 28.414-28.414 15.629 0 28.414 12.785 28.414 28.414 0 15.629-12.785 28.414-28.414 28.414zm0-75.77c-15.629 0-28.414-12.785-28.414-28.414s12.785-28.414 28.414-28.414c15.629 0 28.414 12.785 28.414 28.414 0 15.625-12.785 28.414-28.414 28.414zm0-75.773c-15.629 0-28.414-12.785-28.414-28.414 0-15.629 12.785-28.414 28.414-28.414 15.629 0 28.414 12.785 28.414 28.414 0 15.625-12.785 28.414-28.414 28.414z"/>
</svg>
